<svg width="408" height="916" viewBox="0 0 408 916" fill="none" xmlns="http://www.w3.org/2000/svg">
<path d="M254.445 610.667H152.667V916H254.445V610.667Z" fill="#563011"/>
<path d="M101.778 356.223H50.8887V407.112H101.778V356.223Z" fill="white"/>
<path d="M152.667 407.112H101.778V458.001H152.667V407.112Z" fill="white"/>
<path d="M152.667 356.223H101.778V407.112H152.667V356.223Z" fill="#1D1D1B"/>
<path d="M203.556 356.223H152.667V407.112H203.556V356.223Z" fill="white"/>
<path d="M203.556 305.333H152.667V356.221H203.556V305.333Z" fill="white"/>
<path d="M254.444 305.333H203.556V356.221H254.444V305.333Z" fill="white"/>
<path d="M254.444 254.444H203.556V305.333H254.444V254.444Z" fill="white"/>
<path d="M254.444 407.112H203.556V458.001H254.444V407.112Z" fill="white"/>
<path d="M254.444 356.223H203.556V407.112H254.444V356.223Z" fill="white"/>
<path d="M305.333 356.223H254.444V407.112H305.333V356.223Z" fill="#1D1D1B"/>
<path d="M305.333 407.112H254.444V458.001H305.333V407.112Z" fill="white"/>
<path d="M305.333 458H254.444V508.889H305.333V458Z" fill="white"/>
<path d="M356.222 407.112H305.333V458.001H356.222V407.112Z" fill="white"/>
<path d="M203.556 458H152.667V508.889H203.556V458Z" fill="#1D1D1B"/>
<path d="M203.556 407.112H152.667V458.001H203.556V407.112Z" fill="white"/>
<path d="M152.667 458H101.778V508.889H152.667V458Z" fill="white"/>
<path d="M152.667 508.888H101.778V559.777H152.667V508.888Z" fill="white"/>
<path d="M203.556 508.888H152.667V559.777H203.556V508.888Z" fill="white"/>
<path d="M254.444 508.888H203.556V559.777H254.444V508.888Z" fill="white"/>
<path d="M305.333 508.888H254.444V559.777H305.333V508.888Z" fill="white"/>
<path d="M254.444 559.777H203.556V610.666H254.444V559.777Z" fill="white"/>
<path d="M203.556 559.777H152.667V610.666H203.556V559.777Z" fill="white"/>
<path d="M254.444 458H203.556V508.889H254.444V458Z" fill="#1D1D1B"/>
<path d="M101.778 407.112H50.8887V458.001H101.778V407.112Z" fill="white"/>
<path d="M152.667 559.777H101.778V610.666H152.667V559.777Z" fill="#1D1D1B"/>
<path d="M101.778 458H50.8887V508.889H101.778V458Z" fill="#1D1D1B"/>
<path d="M50.8889 407.112H0V458.001H50.8889V407.112Z" fill="#1D1D1B"/>
<path d="M50.8889 356.223H0V407.112H50.8889V356.223Z" fill="#1D1D1B"/>
<path d="M50.8889 305.333H0V356.221H50.8889V305.333Z" fill="#1D1D1B"/>
<path d="M101.778 254.444H50.8887V305.333H101.778V254.444Z" fill="#1D1D1B"/>
<path d="M101.778 203.556H50.8887V254.445H101.778V203.556Z" fill="#1D1D1B"/>
<path d="M152.667 152.667H101.778V203.555H152.667V152.667Z" fill="#1D1D1B"/>
<path d="M152.667 101.778H101.778V152.667H152.667V101.778Z" fill="#1D1D1B"/>
<path d="M152.667 50.8882H101.778V101.777H152.667V50.8882Z" fill="#1D1D1B"/>
<path d="M203.556 0H152.667V50.8889H203.556V0Z" fill="#1D1D1B"/>
<path d="M254.444 50.8882H203.556V101.777H254.444V50.8882Z" fill="#1D1D1B"/>
<path d="M203.556 101.778H152.667V152.667H203.556V101.778Z" fill="#1A66B0"/>
<path d="M203.556 50.8882H152.667V101.777H203.556V50.8882Z" fill="#1A66B0"/>
<path d="M203.556 152.667H152.667V203.555H203.556V152.667Z" fill="#1A66B0"/>
<path d="M203.556 203.556H152.667V254.445H203.556V203.556Z" fill="#1A66B0"/>
<path d="M152.667 203.556H101.778V254.445H152.667V203.556Z" fill="#1A66B0"/>
<path d="M152.667 305.333H101.778V356.221H152.667V305.333Z" fill="#1A66B0"/>
<path d="M101.778 305.333H50.8887V356.221H101.778V305.333Z" fill="#1A66B0"/>
<path d="M152.667 254.444H101.778V305.333H152.667V254.444Z" fill="#1A66B0"/>
<path d="M203.556 254.444H152.667V305.333H203.556V254.444Z" fill="#1A66B0"/>
<path d="M254.444 152.667H203.556V203.555H254.444V152.667Z" fill="#1A66B0"/>
<path d="M254.444 101.778H203.556V152.667H254.444V101.778Z" fill="#1A66B0"/>
<path d="M254.444 203.556H203.556V254.445H254.444V203.556Z" fill="#1A66B0"/>
<path d="M305.333 203.556H254.444V254.445H305.333V203.556Z" fill="#1A66B0"/>
<path d="M305.333 254.444H254.444V305.333H305.333V254.444Z" fill="#1A66B0"/>
<path d="M305.333 305.333H254.444V356.221H305.333V305.333Z" fill="#1A66B0"/>
<path d="M356.222 356.223H305.333V407.112H356.222V356.223Z" fill="#1A66B0"/>
<path d="M305.333 101.778H254.444V152.667H305.333V101.778Z" fill="#1D1D1B"/>
<path d="M305.333 152.667H254.444V203.555H305.333V152.667Z" fill="#1D1D1B"/>
<path d="M356.222 203.556H305.333V254.445H356.222V203.556Z" fill="#1D1D1B"/>
<path d="M356.222 254.444H305.333V305.333H356.222V254.444Z" fill="#1D1D1B"/>
<path d="M356.222 305.333H305.333V356.221H356.222V305.333Z" fill="#1D1D1B"/>
<path d="M101.778 508.888H50.8887V559.777H101.778V508.888Z" fill="#1D1D1B"/>
<path d="M254.444 610.667H305.333V559.778H254.444V610.667Z" fill="#1D1D1B"/>
<path d="M254.444 916H305.333L305.333 610.667H254.444L254.444 916Z" fill="#1D1D1B"/>
<path d="M101.778 916H152.667L152.667 610.667H101.778L101.778 916Z" fill="#1D1D1B"/>
<path d="M305.334 508.888H356.222V457.999H305.334V508.888Z" fill="#1D1D1B"/>
<path d="M356.222 458H407.111V407.111H356.222V458Z" fill="#1D1D1B"/>
<path d="M356.222 407.112H407.111V356.223H356.222V407.112Z" fill="#1D1D1B"/>
<path d="M305.334 559.777H356.222V508.888H305.334V559.777Z" fill="#1D1D1B"/>
</svg>
